<svg id="visual" viewBox="0 0 900 600" width="900" height="600" xmlns="http://www.w3.org/2000/svg" xmlns:xlink="http://www.w3.org/1999/xlink" version="1.1"><rect x="0" y="0" width="900" height="600" fill="#ffffff"></rect><defs><linearGradient id="grad1_0" x1="33.3%" y1="0%" x2="100%" y2="100%"><stop offset="20%" stop-color="#ffffff" stop-opacity="1"></stop><stop offset="80%" stop-color="#ffffff" stop-opacity="1"></stop></linearGradient></defs><defs><linearGradient id="grad2_0" x1="0%" y1="0%" x2="66.7%" y2="100%"><stop offset="20%" stop-color="#ffffff" stop-opacity="1"></stop><stop offset="80%" stop-color="#ffffff" stop-opacity="1"></stop></linearGradient></defs><g transform="translate(900, 0)"><path d="M0 297.5C-33.7 266.1 -67.3 234.7 -85.3 206C-103.4 177.3 -105.7 151.4 -140.7 140.7C-175.7 130.1 -243.3 134.7 -274.8 113.8C-306.4 92.9 -301.9 46.5 -297.5 0L0 0Z" fill="#2758f1"></path></g><g transform="translate(0, 600)"><path d="M0 -297.5C41.9 -290.6 83.8 -283.7 106.8 -257.8C129.7 -231.9 133.7 -186.9 163.3 -163.3C193 -139.8 248.2 -137.5 274.8 -113.8C301.4 -90.2 299.4 -45.1 297.5 0L0 0Z" fill="#2758f1"></path></g></svg>